<svg width="83" height="74" viewBox="0 0 83 74" fill="none" xmlns="http://www.w3.org/2000/svg">
<path d="M3.64366 0.429567C2.16577 0.429567 0.967773 1.62761 0.967773 3.10545C0.967773 4.5833 2.16577 5.78134 3.64366 5.78134H13.957L23.1553 49.1808C23.5193 50.8145 24.59 52.1742 25.9427 52.1633H70.5408C71.9545 52.1829 73.2548 50.9013 73.2548 49.4874C73.2548 48.0736 71.9545 46.7916 70.5408 46.8115H28.1169L26.974 41.4598H74.1087C75.3067 41.4508 76.4387 40.5383 76.7009 39.3692L82.9446 12.6104C83.2926 11.0575 81.9438 9.3606 80.3524 9.34919H20.2007L18.7513 2.54798C18.498 1.35979 17.346 0.428318 16.1311 0.429567H3.64366ZM21.3157 14.701H37.5382V22.7286H23.016L21.3157 14.701ZM42.89 14.701H55.3775V22.7286H42.89V14.701ZM60.7292 14.701H76.9797L75.1121 22.7286H60.7292V14.701ZM24.1588 28.0804H37.5382V36.108H25.859L24.1588 28.0804ZM42.89 28.0804H55.3775V36.108H42.89V28.0804ZM60.7292 28.0804H73.8578L71.9903 36.108H60.7292V28.0804ZM35.7543 55.7311C30.8598 55.7311 26.8347 59.7561 26.8347 64.6507C26.8347 69.5451 30.8598 73.5703 35.7543 73.5703C40.6488 73.5703 44.6739 69.5451 44.6739 64.6507C44.6739 59.7562 40.6488 55.7311 35.7543 55.7311ZM60.7292 55.7311C55.8348 55.7311 51.8096 59.7561 51.8096 64.6507C51.8096 69.5451 55.8348 73.5703 60.7292 73.5703C65.6237 73.5703 69.6489 69.5451 69.6489 64.6507C69.6489 59.7562 65.6237 55.7311 60.7292 55.7311ZM35.7543 61.0828C37.7565 61.0828 39.3221 62.6485 39.3221 64.6507C39.3221 66.6528 37.7565 68.2185 35.7543 68.2185C33.7523 68.2185 32.1864 66.6528 32.1864 64.6507C32.1864 62.6485 33.7523 61.0828 35.7543 61.0828ZM60.7292 61.0828C62.7314 61.0828 64.2971 62.6485 64.2971 64.6507C64.2971 66.6528 62.7314 68.2185 60.7292 68.2185C58.7272 68.2185 57.1614 66.6528 57.1614 64.6507C57.1614 62.6485 58.7272 61.0828 60.7292 61.0828Z" fill="black"/>
</svg>
