<svg width="87" height="84" viewBox="0 0 87 84" fill="none" xmlns="http://www.w3.org/2000/svg">
<path d="M78.6768 81.0715C79.1774 81.1902 79.6951 81.22 80.2061 81.1597C81.9927 80.9445 83.639 80.0904 84.8368 78.7573C86.0346 77.4241 86.7017 75.7034 86.7133 73.9173L86.4817 54.0353C86.4986 50.6497 85.4502 47.3432 83.4829 44.5772C81.5156 41.8112 78.7274 39.7237 75.5073 38.6059H75.4312C73.6706 37.9846 71.8141 37.6734 69.9456 37.6864H44.0563C40.4006 37.6789 36.843 38.8593 33.9269 41.0473C31.0108 43.2353 28.8966 46.3105 27.9072 49.8033L22.9609 64.2219H15.0006V40.2905H15.6193C17.902 40.2989 20.0949 39.4087 21.7173 37.815C23.3398 36.2212 24.2593 34.0541 24.2744 31.7886V17.7604C24.288 17.033 24.0215 16.328 23.5292 15.789C23.0369 15.2501 22.3559 14.9179 21.6252 14.8603C21.2486 14.8405 20.8719 14.8974 20.5182 15.0272C20.1644 15.1571 19.8412 15.3573 19.5682 15.6156C19.2952 15.8739 19.0782 16.1847 18.9305 16.5292C18.7829 16.8736 18.7077 17.2444 18.7095 17.6187V31.8075C18.7058 32.2161 18.6206 32.62 18.4588 32.9958C18.297 33.3716 18.0619 33.7118 17.7669 33.997C17.472 34.2821 17.123 34.5064 16.7403 34.6571C16.3575 34.8077 15.9485 34.8816 15.5368 34.8745H14.9213V17.7604C14.9349 17.033 14.6683 16.328 14.176 15.789C13.6837 15.2501 13.0027 14.9179 12.2721 14.8603C11.8954 14.8405 11.5187 14.8974 11.165 15.0272C10.8113 15.1571 10.488 15.3573 10.215 15.6156C9.94204 15.8739 9.72506 16.1847 9.57741 16.5292C9.42975 16.8736 9.35453 17.2444 9.35635 17.6187V34.7989H8.73767C7.89622 34.7989 7.08923 34.4672 6.49423 33.8766C5.89923 33.2861 5.56496 32.4852 5.56496 31.65V17.7604C5.57858 17.033 5.31204 16.328 4.81972 15.789C4.3274 15.2501 3.64642 14.9179 2.91575 14.8603C2.53913 14.8405 2.16241 14.8974 1.80869 15.0272C1.45498 15.1571 1.13171 15.3573 0.858716 15.6156C0.585721 15.8739 0.368746 16.1847 0.221092 16.5292C0.0734378 16.8736 -0.00178795 17.2444 3.22594e-05 17.6187V31.8075C0.015134 34.073 0.934689 36.2401 2.55712 37.8338C4.17955 39.4276 6.37248 40.3178 8.65518 40.3094H9.27386V64.9241C7.97223 65.4998 6.86496 66.435 6.08413 67.6181C5.3033 68.8012 4.88187 70.1823 4.87014 71.5966C4.86546 73.0145 5.28025 74.4026 6.06308 75.5887C6.8459 76.7748 7.96231 77.7068 9.27386 78.269V80.5708C9.26024 81.2982 9.52679 82.0033 10.0191 82.5422C10.5114 83.0812 11.1924 83.4133 11.9231 83.471C12.2996 83.4902 12.6761 83.4331 13.0296 83.303C13.3831 83.173 13.7062 82.9728 13.9791 82.7146C14.252 82.4564 14.469 82.1457 14.6168 81.8015C14.7646 81.4573 14.8402 81.0867 14.8388 80.7125V78.8799H25.2009C27.3835 78.8732 29.5243 78.2854 31.3999 77.1776C33.2756 76.0699 34.8173 74.4829 35.8643 72.5822V80.5614C35.8507 81.2887 36.1173 81.9938 36.6096 82.5328C37.1019 83.0717 37.7829 83.4039 38.5135 83.4615C38.8901 83.4808 39.2666 83.4236 39.6201 83.2936C39.9736 83.1635 40.2967 82.9633 40.5696 82.7051C40.8425 82.447 41.0595 82.1363 41.2073 81.792C41.3551 81.4478 41.4306 81.0773 41.4293 80.7031V43.4646C42.2642 43.2849 43.1136 43.1796 43.9674 43.1497H45.9758V52.738C45.9758 53.4704 46.2689 54.1728 46.7907 54.6907C47.3125 55.2086 48.0203 55.4996 48.7582 55.4996H64.3045C65.0424 55.4996 65.7502 55.2086 66.272 54.6907C66.7938 54.1728 67.0869 53.4704 67.0869 52.738V43.156H69.7901C70.4114 43.1692 71.0313 43.2208 71.6461 43.3103V80.5866C71.6325 81.3139 71.8991 82.019 72.3914 82.558C72.8837 83.0969 73.5647 83.4291 74.2953 83.4867C74.6719 83.506 75.0484 83.4488 75.4019 83.3188C75.7554 83.1887 76.0785 82.9885 76.3514 82.7303C76.6243 82.4722 76.8413 82.1615 76.9891 81.8172C77.1369 81.473 77.2124 81.1025 77.2111 80.7283L78.6768 81.0715ZM31.6161 68.7028C31.2178 70.0403 30.3914 71.2128 29.262 72.0428C28.1326 72.8729 26.7616 73.3153 25.3563 73.3033H12.4497C12.1998 73.3135 11.9503 73.2735 11.7163 73.1857C11.4822 73.0978 11.2686 72.9639 11.088 72.792C10.9075 72.62 10.7638 72.4137 10.6657 72.1852C10.5676 71.9568 10.517 71.7111 10.517 71.4627C10.517 71.2144 10.5676 70.9687 10.6657 70.7403C10.7638 70.5118 10.9075 70.3055 11.088 70.1335C11.2686 69.9616 11.4822 69.8277 11.7163 69.7398C11.9503 69.652 12.1998 69.612 12.4497 69.6222H24.8899C25.4636 69.6127 26.021 69.4318 26.4896 69.1032C26.9582 68.7747 27.3162 68.3136 27.5169 67.7801L33.158 51.5225C33.158 51.447 33.158 51.3682 33.2342 51.3682C33.7117 49.5804 34.6422 47.9435 35.9373 46.6135V55.9687L31.6161 68.7028ZM61.5982 49.989H51.6295V43.156H61.5982V49.989ZM81.3038 74.0118C81.284 74.4867 81.08 74.9357 80.7344 75.2648C80.3888 75.5939 79.9284 75.7777 79.4494 75.7777C78.9704 75.7777 78.51 75.5939 78.1644 75.2648C77.8188 74.9357 77.6148 74.4867 77.595 74.0118L77.3633 45.9239C78.5457 46.9296 79.4959 48.1765 80.149 49.5795C80.8022 50.9825 81.143 52.5087 81.1484 54.0542" fill="#E75A61"/>
<path d="M30.7627 20.1473H40.0365C40.7317 24.0188 42.7772 27.524 45.8147 30.049C48.8523 32.574 52.6882 33.9577 56.6504 33.9577C60.6126 33.9577 64.4485 32.574 67.4861 30.049C70.5236 27.524 72.5692 24.0188 73.2643 20.1473H81.9956C82.3615 20.149 82.7241 20.0787 83.0624 19.9405C83.4008 19.8023 83.7082 19.599 83.9669 19.3422C84.2256 19.0854 84.4305 18.7803 84.5697 18.4445C84.709 18.1087 84.7798 17.7489 84.7781 17.3858C84.7778 17.0269 84.7051 16.6716 84.5641 16.3411C84.4232 16.0106 84.217 15.7114 83.9576 15.4613C83.6982 15.2112 83.3909 15.0153 83.0539 14.885C82.717 14.7547 82.3571 14.6928 81.9956 14.7029H73.1914C72.4962 10.8315 70.4507 7.32623 67.4131 4.80125C64.3756 2.27627 60.5397 0.892578 56.5774 0.892578C52.6152 0.892578 48.7793 2.27627 45.7418 4.80125C42.7042 7.32623 40.6587 10.8315 39.9635 14.7029H30.6897C30.3222 14.6967 29.9571 14.7638 29.6162 14.9002C29.2753 15.0366 28.9655 15.2396 28.7052 15.4972C28.4449 15.7547 28.2393 16.0615 28.1007 16.3994C27.9621 16.7373 27.8934 17.0993 27.8985 17.4641C27.9036 17.8289 27.9824 18.1889 28.1304 18.5229C28.2784 18.8568 28.4925 19.1578 28.7599 19.4081C29.0273 19.6584 29.3427 19.8527 29.6873 19.9797C30.0319 20.1067 30.3986 20.1637 30.7658 20.1473H30.7627ZM56.5727 28.4289C54.0893 28.4395 51.6726 27.6323 49.701 26.1336C47.7294 24.635 46.3144 22.5296 45.6776 20.1473H67.5471C66.894 22.5352 65.4642 24.6421 63.4802 26.1403C61.4961 27.6385 59.0689 28.4442 56.5759 28.432L56.5727 28.4289ZM56.5727 6.41827C59.056 6.40763 61.4728 7.21486 63.4444 8.71348C65.416 10.2121 66.831 12.3175 67.4678 14.6998H45.6744C46.3121 12.317 47.7283 10.2116 49.7011 8.71346C51.6739 7.21533 54.0918 6.4092 56.5759 6.42142L56.5727 6.41827Z" fill="#E75A61"/>
</svg>
