<?xml version="1.0" encoding="utf-8"?>
<!-- Generator: Adobe Illustrator 24.1.2, SVG Export Plug-In . SVG Version: 6.00 Build 0)  -->
<svg version="1.1" id="Capa_1" xmlns="http://www.w3.org/2000/svg" xmlns:xlink="http://www.w3.org/1999/xlink" x="0px" y="0px"
	 viewBox="0 0 86.7 53.5" style="enable-background:new 0 0 86.7 53.5;" xml:space="preserve">
<style type="text/css">
	.st0{fill:#2EDA94;}
	.st1{fill:#FFFFFF;}
</style>
<g>
	<g>
		<path class="st0" d="M7.2,4.3c0.1,0,0.2,0.1,0.3,0.1s0.2,0.1,0.2,0.2c0.1,0.1,0.1,0.2,0.2,0.3C7.9,5,8,5.1,8,5.1
			c0,0.1,0.1,0.2,0.1,0.3c0,0.2,0.1,0.2,0.1,0.3C8.7,6.8,8.9,8.2,8.9,10c0,1.6-0.2,3.2-0.5,4.8c-0.7,3.4-1.6,6.3-2.8,8.6
			c-0.1,0.8-0.2,2.1-0.3,3.7c0,0.1,0,0.2,0,0.3c0,0.1,0,0.2,0,0.2c0.3-0.4,0.6-0.8,0.9-1.2c0.3-0.4,0.6-0.6,0.7-0.8
			c0.1-0.2,0.4-0.4,0.7-0.7c0.4-0.3,0.7-0.5,0.9-0.6c0.3-0.1,0.5-0.1,0.9-0.1c0.3,0,0.7,0.2,1,0.5c0.4,0.3,0.7,1.1,1.1,2.2
			c0.2,1.1,0.6,1.8,1.2,1.9c0.3,0.1,0.6,0,0.9-0.2c0.3-0.2,0.7-0.5,1.1-1c0.4-0.5,0.7-0.8,0.9-1.1c0.2-0.2,0.5-0.6,0.9-1.1
			c0.7-0.9,1-1.3,1.1-1.4c0.3-0.3,0.5-0.4,0.6-0.3c0.1,0.1,0.1,0.3-0.1,0.7c-0.1,0.1-0.2,0.3-0.5,0.7c-0.2,0.4-0.4,0.6-0.5,0.8
			c-0.2,0.2-0.5,0.8-1,1.6c-0.5,0.8-1,1.5-1.4,2c-0.4,0.5-0.9,1-1.4,1.4c-0.7,0.4-1.3,0.4-1.8-0.1c-0.3-0.2-0.6-1.1-1.1-2.6
			c-0.5-1.4-0.8-2.2-0.9-2.2c-0.2-0.2-0.5-0.1-0.8,0.4c0,0,0,0.1,0,0.1c-0.2,0.2-0.4,0.6-0.8,1.1c-1.1,1.7-2,3.4-2.7,5
			c-0.2,0.4-0.6,0.6-1.1,0.5c-0.5-0.1-0.8-0.3-0.9-0.8c-0.1-0.5-0.1-1.5,0-3c0-0.3,0-0.8,0.1-1.5c0-0.7,0.1-1.2,0.1-1.5
			c0-0.8,0.1-2.8,0.2-6c0-0.3,0.1-2.1,0.3-5.4C3.9,12,4,10.3,4.1,9.4c0.3-1.9,0.8-3.3,1.4-4.2c0.5-0.7,1-1,1.4-1
			C7,4.3,7.1,4.3,7.2,4.3z M7.1,6.1C7,6.3,6.9,6.6,6.8,7C6.6,7.6,6.5,8.2,6.5,8.7c0,0.5-0.1,1.2-0.1,2.2c0,1,0,1.7-0.1,2.1
			c-0.2,3.8-0.4,6.3-0.5,7.4c0.8-2.2,1.4-4.3,1.6-6.2c0.2-1.6,0.3-3,0.4-4.3c0-2-0.2-3.3-0.6-3.9C7.1,6.1,7.1,6.1,7.1,6.1L7.1,6.1z"
			/>
		<path class="st0" d="M23.8,28.2c0.2-0.2,0.4-0.4,0.7-0.6c0.2-0.2,0.4-0.4,0.6-0.6c0.2-0.2,0.4-0.4,0.7-0.7
			c0.3-0.3,0.5-0.5,0.6-0.7c0.1-0.1,0.3-0.4,0.6-0.8c0.3-0.4,0.5-0.6,0.5-0.7c0,0,0.1-0.1,0.2-0.2c0.1-0.1,0.2-0.2,0.2-0.3
			c0.1-0.2,0.3-0.2,0.5-0.2c0.1,0.1,0.2,0.3,0.1,0.5c0,0-0.1,0.2-0.3,0.6c-0.9,1.8-1.8,3.2-2.5,4.2c-0.8,1-1.7,1.9-2.8,2.6
			c-1.8,1-3.5,1-5.1,0.1c-0.6-0.5-1-1.1-1.2-2c-0.2-0.9-0.2-1.7,0-2.6c0.2-0.9,0.5-1.7,0.9-2.5c0.7-1.4,1.5-2.4,2.4-2.9
			c0.5-0.3,1-0.4,1.6-0.2c0.6,0.2,0.9,0.6,1.1,1.2c0.3,1,0.1,2-0.6,3c-0.3,0.4-0.7,0.8-1.1,1c-0.4,0.2-0.8,0.2-1.3,0
			c-0.1-0.1-0.1-0.2-0.2-0.3c-0.1,0.3-0.2,0.7-0.4,1.2c-0.1,0.8-0.1,1.3,0,1.6c0.2,0.2,0.5,0.4,0.9,0.5c1.2,0.1,2.3-0.1,3.4-0.7
			C23.3,28.5,23.5,28.4,23.8,28.2z M19.5,25c0.2,0,0.3,0.1,0.4,0.3c0.4-0.3,0.7-0.8,0.8-1.5c0,0,0-0.1,0-0.3c0,0-0.1,0.1-0.2,0.1
			s-0.1,0.1-0.1,0.1C20.1,24.1,19.8,24.5,19.5,25z"/>
		<path class="st0" d="M33.5,4.8C33.7,5.4,33.9,6,34,6.7c0,1.4-0.3,3.4-1,6c-0.3,1-0.6,2.1-0.9,3.2c-0.4,1.1-0.7,2.2-1.2,3.5
			c-0.4,1.2-0.7,2-0.9,2.4c0,0.8,0,1.6,0,2.4c0.1,1.2,0.2,2.2,0.3,3.1c0.1,1,0.3,1.8,0.5,2.2c0.3,0.6,0.6,0.8,1.1,0.6
			c0.7-0.3,1.3-0.7,1.9-1.2c1-1,2.1-2.4,3.2-4.3c0.2-0.3,0.3-0.6,0.5-0.9c0.1-0.1,0.2-0.2,0.3-0.1c0.1,0.1,0.2,0.2,0.2,0.3
			c-0.4,1.1-0.9,2.3-1.6,3.7c-0.8,1.5-1.6,2.6-2.4,3.5c-0.9,1-1.7,1.6-2.4,1.6c-1.1,0-2-0.6-2.7-1.7c-0.4-0.7-0.7-1.8-0.9-3.3
			c-0.1-1-0.2-2.1-0.3-3.4c-0.1-2.3-0.1-4.6,0.1-6.9c0.2-2.4,0.5-4.7,1-6.8C29,9,29.3,7.9,29.5,7.2C29.7,6.5,30,6,30.2,5.6
			c0.2-0.4,0.6-0.7,1-1.1c0.3-0.3,0.7-0.5,1-0.5C32.8,4,33.2,4.3,33.5,4.8z M30.7,12.8c-0.3,1.7-0.5,3.5-0.6,5.6
			c0,0.5-0.1,1-0.1,1.6c1-2.9,1.8-5.5,2.3-7.8c0.8-3.9,1-6.2,0.4-6.8c0,0-0.1,0-0.1,0C32,5.4,31.3,7.9,30.7,12.8z"/>
		<path class="st0" d="M44.6,23.3c0.4,0.1,0.9,0.6,1.6,1.4c0.7,0.9,1.2,1.9,1.4,3.1c0.6-0.4,1.2-0.9,1.9-1.4c0.4-0.3,1.1-0.8,2-1.4
			c0.9-0.6,1.5-1.1,2-1.4c0.2-0.1,0.4-0.1,0.5,0c0.1,0.1,0.1,0.3-0.1,0.5c-0.1,0-0.4,0.3-1,0.7c-0.6,0.5-1.4,1.1-2.4,1.9
			c-1,0.8-1.9,1.5-2.7,2.1c0.1,1.4-0.2,2.8-0.9,4.1c-0.9,1.6-1.9,2.6-3,2.9c-1,0.2-1.7-0.1-2.1-1c-0.2-0.9,0.2-1.9,1.3-3
			c0.7-0.8,1.6-1.7,2.6-2.5c0-0.4-0.1-0.9-0.2-1.3c-0.2-0.6-0.4-1.1-0.7-1.6c-0.1-0.2-0.3-0.4-0.5-0.7c-0.1-0.1-0.1-0.1-0.2-0.2
			c-0.1,0.1-0.2,0.2-0.3,0.4c-0.2,0.2-0.3,0.5-0.5,0.9c-0.3,0.6-0.6,1.3-1,2.2c-0.6,1.6-1.1,3.2-1.5,4.7c-0.4,1.6-0.6,3.2-0.8,4.8
			c0,0.5-0.1,1.4-0.1,2.6s0,2.5,0,3.9c0,1.4,0,2.3,0,2.6c0,0.3-0.1,0.6-0.3,0.8s-0.5,0.3-0.8,0.3c-0.6,0-1-0.4-1.1-1.1
			c-0.4-3-0.6-7.8-0.7-14.3v-5.2c0-0.3,0-0.7,0-1.2c0-0.6,0-1,0-1.2c0-0.1,0-0.3-0.1-0.7c0-0.4,0-0.7,0-1c0-0.3,0.1-0.5,0.3-0.7
			c0.1-0.1,0.2-0.2,0.3-0.3c0.1,0,0.3,0,0.4,0.1c0.1,0.1,0.2,0.3,0.3,0.5c0.1,0.2,0.1,0.4,0.1,0.6c0,0.2,0,0.4,0,0.6
			c0,0.3,0,0.5,0,0.6c0.1,0.6,0.1,1.5,0.2,2.6c0,0.7,0.1,2.3,0.2,4.7c0.4-1.6,0.9-3.1,1.5-4.5c0.8-2,1.5-3.4,2.1-4.2
			c0.6-0.7,1.1-1,1.6-1.1C44.2,23.2,44.4,23.2,44.6,23.3z M43.3,33.3c0,0.1,0.2,0.1,0.4,0.1c0.1-0.1,0.2-0.2,0.5-0.5
			c0.4-0.4,0.7-0.9,1-1.4c0.1-0.2,0.2-0.5,0.3-0.7C43.9,32.2,43.2,33,43.3,33.3z"/>
		<path class="st0" d="M56.9,4.3c0.1,0,0.2,0.1,0.3,0.1s0.2,0.1,0.2,0.2c0.1,0.1,0.1,0.2,0.2,0.3c0.1,0.1,0.1,0.2,0.2,0.3
			c0,0.1,0.1,0.2,0.1,0.3c0,0.2,0.1,0.2,0.1,0.3c0.4,1.1,0.6,2.5,0.6,4.3c0,1.6-0.2,3.2-0.5,4.8c-0.7,3.4-1.6,6.3-2.8,8.6
			c-0.1,0.8-0.2,2.1-0.3,3.7c0,0.1,0,0.2,0,0.3c0,0.1,0,0.2,0,0.2c0.3-0.4,0.6-0.8,0.9-1.2c0.3-0.4,0.6-0.6,0.7-0.8
			c0.1-0.2,0.4-0.4,0.7-0.7c0.4-0.3,0.7-0.5,0.9-0.6c0.3-0.1,0.5-0.1,0.9-0.1c0.3,0,0.7,0.2,1,0.5c0.4,0.3,0.7,1.1,1.1,2.2
			c0.2,1.1,0.6,1.8,1.2,1.9c0.3,0.1,0.6,0,0.9-0.2c0.3-0.2,0.7-0.5,1.1-1c0.4-0.5,0.7-0.8,0.9-1.1c0.2-0.2,0.5-0.6,0.9-1.1
			c0.7-0.9,1-1.3,1.1-1.4c0.3-0.3,0.5-0.4,0.6-0.3c0.1,0.1,0.1,0.3-0.1,0.7c-0.1,0.1-0.2,0.3-0.5,0.7c-0.2,0.4-0.4,0.6-0.5,0.8
			c-0.2,0.2-0.5,0.8-1,1.6c-0.5,0.8-1,1.5-1.4,2c-0.4,0.5-0.9,1-1.4,1.4c-0.7,0.4-1.3,0.4-1.8-0.1c-0.3-0.2-0.6-1.1-1.1-2.6
			c-0.5-1.4-0.8-2.2-0.9-2.2c-0.2-0.2-0.5-0.1-0.8,0.4c0,0,0,0.1,0,0.1c-0.2,0.2-0.4,0.6-0.8,1.1c-1.1,1.7-2,3.4-2.7,5
			c-0.2,0.4-0.6,0.6-1.1,0.5c-0.5-0.1-0.8-0.3-0.9-0.8c-0.1-0.5-0.1-1.5,0-3c0-0.3,0-0.8,0.1-1.5c0-0.7,0.1-1.2,0.1-1.5
			c0-0.8,0.1-2.8,0.2-6c0-0.3,0.1-2.1,0.3-5.4c0.2-2.7,0.3-4.4,0.4-5.3c0.3-1.9,0.8-3.3,1.4-4.2c0.5-0.7,1-1,1.4-1
			C56.7,4.3,56.8,4.3,56.9,4.3z M56.8,6.1c-0.1,0.2-0.2,0.5-0.3,0.9c-0.2,0.6-0.3,1.2-0.3,1.7c0,0.5-0.1,1.2-0.1,2.2
			c0,1,0,1.7-0.1,2.1c-0.2,3.8-0.4,6.3-0.5,7.4c0.8-2.2,1.4-4.3,1.6-6.2c0.2-1.6,0.3-3,0.4-4.3c0-2-0.2-3.3-0.6-3.9
			C56.8,6.1,56.8,6.1,56.8,6.1L56.8,6.1z"/>
		<path class="st0" d="M74.9,21.1c0.6,0.1,1,0.5,1.1,1.2c0.4,2.9,0.6,5.7,0.6,8.5c0.3-0.5,0.7-0.9,1-1.4c0.9-1.2,1.9-2.4,3-3.6
			c0.7-0.7,1.4-1.4,2.1-2.2c0.1-0.2,0.3-0.3,0.5-0.3c0.2,0,0.3,0,0.4,0.1c0.2,0.2,0.2,0.4,0,0.7c-0.6,0.6-1.3,1.3-1.9,2.1
			c-1.2,1.4-2.4,2.8-3.4,4.2c-0.6,0.8-1.1,1.6-1.6,2.4c0,1.1,0,2.3-0.2,3.4c-0.2,2.7-0.4,5.1-0.8,7.1c-0.2,1.2-0.5,2.3-0.8,3.3
			c0,0-0.1,0.3-0.2,0.7c-0.1,0.4-0.2,0.7-0.3,0.9c-0.1,0.2-0.2,0.4-0.4,0.6c-0.2,0.3-0.4,0.4-0.6,0.5c-0.2,0.1-0.3,0.1-0.5,0.1
			c-0.1,0-0.3,0-0.4,0c-0.4,0-0.7-0.2-1-0.5c-0.3-0.3-0.5-0.7-0.6-1.2c-0.3-1.4-0.1-3.3,0.5-5.8c0.4-1.7,1-3.4,1.7-5
			c0.2-0.6,0.5-1.2,0.8-1.9c0.1-2.3,0.1-4.6,0-6.7c-0.1,0.2-0.1,0.3-0.2,0.5c-0.3,0.6-0.5,1.1-0.6,1.4c-0.2,0.4-0.4,0.8-0.7,1.2
			c-0.3,0.5-0.7,0.8-1.1,1.1c-0.4,0.3-0.9,0.5-1.4,0.6c-1,0.1-1.8-0.2-2.4-0.9s-1-1.7-1.1-2.8c-0.2-1.1-0.2-2.2,0-3.2
			c0.2-1.3,0.5-2.2,0.9-2.7c0.2-0.2,0.4-0.3,0.6-0.3c0.2,0,0.3,0.1,0.4,0.3c0.1,0.2,0.1,0.3,0,0.4c0,0.1,0,0.4-0.1,0.9
			c0,0.5-0.1,0.8-0.1,1.1c0,0.8,0,1.6,0.2,2.3c0,0,0,0.1,0,0.2c0.1,0.4,0.1,0.7,0.2,0.9c0.1,0.2,0.2,0.5,0.3,0.9
			c0.1,0.4,0.3,0.6,0.5,0.7c0.2,0.1,0.5,0.1,0.7,0c0.4-0.2,0.8-0.8,1.2-1.7c0.3-0.6,0.6-1.4,0.9-2.3c0.5-1.4,0.9-3.1,1.4-5.1
			c0.1-0.3,0.2-0.5,0.5-0.6c0.2-0.2,0.5-0.2,0.8-0.2C74.9,21.1,74.9,21.1,74.9,21.1z M72.6,43.3c-0.2,1.1-0.3,2.2-0.3,3.1
			c0,0.5,0.1,1,0.2,1.3c0.1,0.2,0.2,0.4,0.2,0.5c0-0.1,0-0.2,0-0.3c0-0.1,0-0.2,0-0.3c0-0.2,0.1-0.4,0.1-0.7c0-0.2,0.1-0.5,0.1-0.9
			c0-0.4,0.1-0.6,0.1-0.8c0-0.4,0.1-0.9,0.2-1.7c0.1-0.7,0.2-1.3,0.2-1.7c0.2-1.2,0.3-2.4,0.4-3.6C73.2,40.1,72.8,41.7,72.6,43.3z"
			/>
	</g>
</g>
</svg>
