<?xml version="1.0" encoding="utf-8"?>
<!-- Generator: Adobe Illustrator 24.1.2, SVG Export Plug-In . SVG Version: 6.00 Build 0)  -->
<svg version="1.1" id="Capa_1" xmlns="http://www.w3.org/2000/svg" xmlns:xlink="http://www.w3.org/1999/xlink" x="0px" y="0px"
	 viewBox="0 0 114 114" style="enable-background:new 0 0 114 114;" xml:space="preserve">
<style type="text/css">
	.st0{fill:#2EDA94;}
	.st1{fill:#FFFFFF;}
	.st2{font-family:'Rotterdam';}
	.st3{font-size:41.9452px;}
</style>
<g>
	<g>
		<circle class="st0" cx="56.4" cy="57.3" r="56.7"/>
		<g>
			<g>
				<path class="st1" d="M56.4,114c22.4,0,41.7-12.9,50.9-31.8c-0.4-0.5-0.8-1-1.3-1.3c-4.6-3.9-4.6-6.6-4.6-6.6l-6.6-13.9
					c0,0-1.9-7.7-7.7-10c-1.6-0.7-3.7-0.5-5.4-1.2c-3.1-1.1-6.3-1.7-9.6-1.7c-2.7,0-5.3-0.2-4.3-1c1.9-1.5,1.9-5.8,1.9-5.8
					s0.4-5.4,0.8-7c0.1-0.4,0.3-1.2,0.4-2.1c0.4-2.3,0.2-4.6-0.2-6.8c-0.3-1.3,0.2-3,3.3-4.2c5.8-2.3,9.3-7,9.3-7s1.2-3.9-2.7-2.3
					c-3.9,1.5-10.8,1.2-10.8,1.2s-3-6.8-5.3-11.4c-2.7-0.4-5.4-0.6-8.1-0.6c-4.7,0-9.3,0.6-13.7,1.7c-0.5,1.1-1.3,3-1.5,4.5
					c-0.4,2.3-1.9,7.3-1.9,7.3s-12.7-1.5-11.6,6.2C28.9,28,42,29.9,42,29.9s1.2,3.9,2.7,6.6c0.8,1.4-0.2,2.9-1.4,4.1
					c-1.3,1.3-2.3,2.8-3.3,4.3c-0.4,0.7-1.1,1.3-2.1,1.6c-1.6,0.4-3.2,0.8-4.7,1.3L32.7,48c-2.3,0.8-4.7,1.4-7.1,1.9
					c-3.6,0.6-7.1,2.5-7.1,2.5s-2.7,1.5-5.4,16.6c-1.8,10.2-1.2,19.4-0.6,24.2C22.9,105.9,38.7,114,56.4,114z"/>
			</g>
			<text transform="matrix(1 0 0 1 23.7988 89.333)" class="st0 st2 st3">helphy</text>
		</g>
	</g>
	<g>
		<path class="st1" d="M66.6,35.8c0.7,0.1,1.5,0.3,2.2,0.4c1.2,0.1,2.5,0.2,3.7,0.2c1.5,0,3-0.3,4.5-0.7c0.6-0.2,1.2-0.4,1.8-0.6
			c0.1,0,0.2,0,0.3,0.1c0.3,0.2,0.5,0.2,0.8,0c0.2-0.2,0.3-0.4,0.2-0.7c-0.1-0.3-0.3-0.4-0.6-0.4c-0.3,0-0.5,0.2-0.5,0.5
			c0,0.1,0,0.1,0,0.3C74.9,35.6,70.8,35.8,66.6,35.8z"/>
		<path class="st1" d="M81.4,29.2c-1.7,1.3-2.1,3.1-1,4.9C82.2,32.7,82.5,30.9,81.4,29.2z"/>
		<path class="st1" d="M80.7,34.4c1.2,1.7,3.1,2.1,4.8,1C84.4,33.7,82.5,33.3,80.7,34.4z"/>
		<path class="st1" d="M88.1,33c-1.4-1.5-3.1-1.5-4.6-0.3C84.8,34.1,86.6,34.3,88.1,33z"/>
		<path class="st1" d="M83.3,32.4c1.4-1.3,1.6-3.1,0.3-4.6C82.2,29.1,82,30.9,83.3,32.4z"/>
		<path class="st1" d="M90.6,30.7c-1.5-1.4-3.1-1.4-4.5-0.1C87.4,31.9,89.1,32,90.6,30.7z"/>
		<path class="st1" d="M86,25.8c-1.3,1.3-1.4,3-0.2,4.5C87.2,28.9,87.3,27.2,86,25.8z"/>
		<path class="st1" d="M92.7,27.8c-1.4-1-3-0.8-4.1,0.6C90,29.4,91.6,29.2,92.7,27.8z"/>
		<path class="st1" d="M87.7,24.1c-1,1.4-0.8,3,0.6,4.1C89.3,26.9,89.1,25.2,87.7,24.1z"/>
		<path class="st1" d="M89,22.8c-0.7,1.2-0.2,2.6,1,3.3C90.7,24.8,90.3,23.5,89,22.8z"/>
		<path class="st1" d="M90.3,26.2c1.3,0.6,2.6,0.2,3.3-1.1C92.2,24.5,90.9,25,90.3,26.2z"/>
		<path class="st1" d="M93.9,22.7c-1.2-0.4-2.3,0.2-2.6,1.3C92.3,24.4,93.5,23.8,93.9,22.7z"/>
		<path class="st1" d="M91,23.9c0.4-1-0.1-2.2-1.3-2.6C89.3,22.4,89.9,23.6,91,23.9z"/>
		<path class="st1" d="M91.8,22.2c1-0.4,1.4-1.7,0.9-2.6C91.7,20,91.3,21.2,91.8,22.2z"/>
	</g>
</g>
</svg>
