<svg width="47" height="58" viewBox="0 0 47 58" fill="none" xmlns="http://www.w3.org/2000/svg">
<path d="M38.1862 58H8.81152C8.09799 58.0002 7.4083 57.7464 6.86905 57.2851C6.3298 56.8238 5.97716 56.1859 5.87584 55.4886L1.95936 20.6855C1.9079 20.3047 1.93293 19.9175 2.03303 19.5461C2.13313 19.1748 2.30634 18.8266 2.54276 18.5213C2.77918 18.2161 3.07419 17.9598 3.41094 17.7671C3.7477 17.5744 4.11959 17.449 4.50541 17.3982C4.89122 17.3474 5.28339 17.3721 5.65953 17.471C6.03567 17.5698 6.38841 17.7408 6.69761 17.9742C7.00681 18.2076 7.26641 18.4988 7.4616 18.8313C7.65679 19.1638 7.78374 19.5309 7.8352 19.9118L11.3598 52.1881H35.4454L39.167 19.9118C39.271 19.1426 39.6802 18.4456 40.3046 17.9742C40.9291 17.5028 41.7176 17.2956 42.4968 17.3982C43.276 17.5008 43.982 17.9048 44.4595 18.5213C44.937 19.1378 45.1468 19.9163 45.0429 20.6855L41.1242 55.4886C41.0228 56.1863 40.6698 56.8244 40.1301 57.2858C39.5904 57.7472 38.9002 58.0008 38.1862 58ZM46.9978 8.70133C46.979 7.93791 46.6635 7.21088 46.1165 6.6709C45.5695 6.13092 44.8331 5.8194 44.0598 5.80088H35.8283L32.6933 1.35295C32.4575 0.944811 32.1172 0.605 31.7066 0.367552C31.2959 0.130104 30.8292 0.00335554 30.3533 0H16.6445C16.167 0.00180699 15.6985 0.127823 15.2861 0.365348C14.8737 0.602874 14.532 0.943517 14.2955 1.35295L11.1605 5.79867H2.93792C2.15873 5.79867 1.41146 6.10426 0.860497 6.64819C0.30953 7.19213 0 7.92987 0 8.69912C0 9.46836 0.30953 10.2061 0.860497 10.75C1.41146 11.294 2.15873 11.5996 2.93792 11.5996H12.7302C13.2077 11.5978 13.6762 11.4717 14.0886 11.2342C14.501 10.9967 14.8427 10.656 15.0792 10.2466L18.2142 5.80088H28.788L31.923 10.2466C32.1596 10.656 32.5013 10.9967 32.9136 11.2342C33.326 11.4717 33.7946 11.5978 34.272 11.5996H44.0643C44.8372 11.5805 45.5731 11.2687 46.1196 10.7288C46.666 10.1889 46.9813 9.46216 47 8.69912L46.9978 8.70133Z" fill="#2EDA94"/>
</svg>
