<svg width="51" height="91" viewBox="0 0 51 91" fill="none" xmlns="http://www.w3.org/2000/svg">
<path d="M25.4556 90.8967L1.53618 35.1497L3.12514 34.4693L1.58267 35.0398C0.157138 31.1848 -0.315308 27.0422 0.205606 22.9652C0.726519 18.8881 2.22533 14.9975 4.57436 11.6246C6.92339 8.25173 10.053 5.49667 13.6965 3.59415C17.3401 1.69164 21.3896 0.698059 25.5 0.698059C29.6104 0.698059 33.6598 1.69164 37.3034 3.59415C40.9469 5.49667 44.0766 8.25173 46.4256 11.6246C48.7746 14.9975 50.2735 18.8881 50.7944 22.9652C51.3153 27.0422 50.8428 31.1848 49.4173 35.0398L49.3708 35.1497L25.4556 90.8967ZM5.93124 33.4256L25.4556 78.9249L45.0138 33.341C46.164 30.1989 46.5384 26.8255 46.105 23.5076C45.6716 20.1898 44.4433 17.0257 42.5245 14.2844C40.6058 11.5431 38.0534 9.30569 35.0843 7.76245C32.1153 6.21921 28.8173 5.41573 25.4711 5.42044C22.1249 5.42516 18.8294 6.23787 15.8647 7.78947C12.9 9.34107 10.3539 11.5857 8.44291 14.3324C6.5319 17.0791 5.31251 20.2466 4.88846 23.5657C4.46442 26.8847 4.84827 30.2571 6.00733 33.396L5.93124 33.4256Z" fill="#2EDA94"/>
<path d="M25.4977 38.4457C22.9902 38.4457 20.5391 37.7023 18.4542 36.3092C16.3693 34.9162 14.7442 32.9363 13.7846 30.6198C12.8251 28.3033 12.574 25.7543 13.0632 23.2951C13.5524 20.8359 14.7599 18.577 16.533 16.804C18.306 15.031 20.565 13.8236 23.0244 13.3345C25.4837 12.8453 28.0329 13.0964 30.3495 14.0559C32.6661 15.0154 34.6461 16.6403 36.0392 18.7251C37.4323 20.8099 38.1759 23.261 38.1759 25.7683C38.1759 29.1306 36.8402 32.3551 34.4626 34.7326C32.085 37.1101 28.8602 38.4457 25.4977 38.4457ZM25.4977 17.8492C23.9272 17.8492 22.3919 18.3148 21.0861 19.1873C19.7802 20.0598 18.7625 21.2999 18.1615 22.7508C17.5604 24.2017 17.4032 25.7983 17.7096 27.3385C18.0159 28.8788 18.7723 30.2936 19.8828 31.4041C20.9933 32.5145 22.4082 33.2708 23.9485 33.5772C25.4889 33.8836 27.0856 33.7263 28.5366 33.1253C29.9876 32.5243 31.2277 31.5066 32.1003 30.2008C32.9728 28.8951 33.4384 27.3599 33.4384 25.7895C33.4362 23.6842 32.599 21.6659 31.1103 20.1773C29.6216 18.6887 27.603 17.8514 25.4977 17.8492Z" fill="#2EDA94"/>
</svg>
